<?xml version="1.0" standalone="no"?>
<!DOCTYPE svg PUBLIC "-//W3C//DTD SVG 20010904//EN"
 "http://www.w3.org/TR/2001/REC-SVG-20010904/DTD/svg10.dtd">
<svg version="1.0" xmlns="http://www.w3.org/2000/svg"
 width="512.000000pt" height="512.000000pt" viewBox="0 0 512.000000 512.000000"
 preserveAspectRatio="xMidYMid meet">

<g transform="translate(0.000000,512.000000) scale(0.100000,-0.100000)"
fill="#000000" stroke="none">
<path d="M2825 4695 c-22 -8 -41 -15 -41 -15 -1 0 -169 -128 -374 -285 -204
-157 -373 -285 -376 -285 -2 0 -4 52 -4 115 0 110 -1 117 -25 140 -24 25 -25
25 -225 25 -200 0 -201 0 -225 -25 l-25 -24 0 -288 c0 -251 -3 -293 -18 -325
-13 -29 -71 -79 -259 -223 -134 -103 -253 -201 -265 -218 -19 -26 -23 -45 -23
-103 0 -62 3 -75 28 -107 42 -55 99 -81 177 -81 43 0 76 6 98 17 l32 18 0
-346 0 -345 140 0 140 0 0 443 c0 340 3 447 13 459 6 8 185 147 397 309 212
161 495 378 630 482 135 104 255 193 268 198 13 5 33 4 47 -1 14 -5 227 -164
473 -353 246 -189 533 -409 637 -489 l190 -145 3 -760 2 -760 140 56 140 55 0
598 0 599 29 -15 c107 -56 254 -8 302 98 23 52 23 90 0 141 -23 50 -48 73
-236 217 -82 63 -463 355 -845 649 -382 294 -719 546 -749 562 -62 31 -131 35
-196 12z"/>
<path d="M2574 3330 c-45 -18 -54 -47 -54 -167 l0 -113 145 0 145 0 0 145 0
145 -107 -1 c-60 0 -118 -4 -129 -9z"/>
<path d="M3019 3338 c-4 -15 -5 -222 -1 -250 l5 -38 138 0 139 0 0 116 c0 63
-4 124 -10 134 -15 28 -65 40 -171 40 -55 0 -99 -1 -100 -2z"/>
<path d="M2522 2749 c4 -159 4 -159 169 -159 l119 0 0 140 0 140 -146 0 -146
0 4 -121z"/>
<path d="M3017 2803 c-3 -38 -3 -101 0 -140 l6 -73 114 0 c108 0 115 1 138 25
24 23 25 30 25 140 l0 115 -139 0 -138 0 -6 -67z"/>
<path d="M268 2310 c-102 -3 -190 -8 -193 -12 -18 -18 40 -451 85 -636 76
-312 218 -650 373 -890 40 -61 51 -72 83 -78 54 -10 273 5 304 21 35 18 50 55
50 121 0 48 2 55 18 50 9 -3 211 -62 447 -132 1150 -337 1212 -352 1455 -341
140 6 255 34 363 88 144 72 1685 924 1717 949 100 78 109 195 19 258 -36 25
-156 21 -239 -8 -85 -30 -952 -374 -1007 -400 -24 -11 -43 -24 -43 -29 0 -20
-116 -92 -178 -111 -57 -18 -120 -21 -634 -35 -508 -13 -574 -13 -600 1 -54
28 -63 105 -15 123 13 5 259 14 548 21 619 13 674 18 729 54 88 58 125 178 85
281 -20 53 -83 111 -135 124 -19 5 -134 14 -255 20 -247 13 -535 49 -640 81
-38 12 -147 59 -241 105 -356 174 -507 201 -1075 193 l-346 -6 -5 67 c-5 73
-20 104 -55 120 -25 11 -259 12 -615 1z"/>
</g>
</svg>
